<?xml version="1.0" encoding="iso-8859-1"?>
<!-- Generator: Adobe Illustrator 18.0.0, SVG Export Plug-In . SVG Version: 6.00 Build 0)  -->
<!DOCTYPE svg PUBLIC "-//W3C//DTD SVG 1.1//EN" "http://www.w3.org/Graphics/SVG/1.1/DTD/svg11.dtd">
<svg xmlns="http://www.w3.org/2000/svg" xmlns:xlink="http://www.w3.org/1999/xlink" version="1.1" id="Capa_1" x="0px" y="0px" viewBox="0 0 412.398 412.398" style="enable-background:new 0 0 412.398 412.398;" xml:space="preserve" width="512px" height="512px">
<g>
	<path d="M397.602,12.735C393.608,4.88,385.652,0,376.84,0L22.248,0.002c-5.523,0-10,4.477-10,10v341.291   c0,33.694,27.412,61.105,61.105,61.105h218.999c33.694,0,61.105-27.412,61.105-61.105V115.096c0-13.208,4.112-25.831,11.893-36.503   l30.312-41.58C400.853,29.892,401.597,20.589,397.602,12.735z M379.501,25.231l-30.312,41.58   c-10.292,14.117-15.732,30.814-15.732,48.285v236.196c0,22.666-18.44,41.105-41.105,41.105H73.353   c-22.666,0-41.105-18.44-41.105-41.105V20.002L376.84,20c1.757,0,2.593,1.128,2.935,1.8S380.535,23.812,379.501,25.231z" fill="#42c21f"/>
	<path d="M319.308,180.425c-19.003-15.15-45.55-15.15-64.555,0c-11.664,9.298-27.957,9.298-39.623-0.002   c-19.004-15.149-45.549-15.148-64.553,0c-0.01,0.008-0.02,0.016-0.03,0.024c-11.662,9.275-27.938,9.269-39.603-0.029   c-19.002-15.146-45.544-15.146-64.548,0c-2.38,1.897-3.767,4.776-3.767,7.82v159.445c0,17.886,14.551,32.438,32.437,32.438h215.57   c17.886,0,32.438-14.552,32.438-32.438V188.244C323.075,185.2,321.689,182.322,319.308,180.425z M303.075,347.684   c0,6.858-5.58,12.438-12.438,12.438H75.067c-6.858,0-12.437-5.579-12.437-12.438V193.467c11.225-6.604,25.398-5.739,35.86,2.601   c19.004,15.147,45.548,15.146,64.551-0.002c0.011-0.009,0.022-0.018,0.034-0.027c11.661-9.274,27.935-9.266,39.591,0.026   c19.005,15.149,45.551,15.149,64.554,0c10.457-8.335,24.629-9.198,35.854-2.592V347.684z" fill="#42c21f"/>
</g>
<g>
</g>
<g>
</g>
<g>
</g>
<g>
</g>
<g>
</g>
<g>
</g>
<g>
</g>
<g>
</g>
<g>
</g>
<g>
</g>
<g>
</g>
<g>
</g>
<g>
</g>
<g>
</g>
<g>
</g>
</svg>
