<?xml version="1.0" encoding="iso-8859-1"?>
<!-- Generator: Adobe Illustrator 18.0.0, SVG Export Plug-In . SVG Version: 6.00 Build 0)  -->
<!DOCTYPE svg PUBLIC "-//W3C//DTD SVG 1.1//EN" "http://www.w3.org/Graphics/SVG/1.1/DTD/svg11.dtd">
<svg xmlns="http://www.w3.org/2000/svg" xmlns:xlink="http://www.w3.org/1999/xlink" version="1.1" id="Capa_1" x="0px" y="0px" viewBox="0 0 51 51" style="enable-background:new 0 0 51 51;" xml:space="preserve" width="512px" height="512px">
<g>
	<path d="M38.777,2.896C38.108,2.63,37.5,1.73,37.5,1c0-0.553-0.447-1-1-1h-22c-0.553,0-1,0.458-1,1.011   c0,0.72-0.608,1.619-1.277,1.886C10.568,3.559,9.5,5.137,9.5,6.918v13.361v4v16.108v3.694v0.306l0.022-0.007   c0.113,1.656,1.14,3.099,2.7,3.723C12.892,48.37,13.5,49.27,13.5,50c0,0.553,0.447,1,1,1h22c0.553,0,1-0.458,1-1.011   c0-0.72,0.608-1.619,1.277-1.886c1.654-0.662,2.723-2.24,2.723-4.021V33.721v-4V13.612v-4V6.918   C41.5,5.137,40.432,3.559,38.777,2.896z M11.5,25.721l28-9.333v11.892l-28,9.333V25.721z M39.5,44.082   c0,0.959-0.575,1.809-1.465,2.164c-1.115,0.445-2.04,1.553-2.388,2.754H15.354c-0.347-1.197-1.273-2.308-2.39-2.754   c-0.89-0.355-1.465-1.205-1.465-2.164v-0.361l28-9.333V44.082z M39.5,32.279l-28,9.333v-1.891l28-9.333V32.279z M11.5,23.613   v-1.892l28-9.333v1.891L11.5,23.613z M11.5,19.613V6.918c0-0.959,0.575-1.809,1.465-2.164C14.08,4.309,15.005,3.201,15.353,2   h20.293c0.347,1.197,1.273,2.308,2.39,2.754c0.89,0.355,1.465,1.205,1.465,2.164v3.361L11.5,19.613z" fill="#4bb5bd"/>
	<path d="M19.5,6h-5c-0.553,0-1,0.447-1,1s0.447,1,1,1h5c0.553,0,1-0.447,1-1S20.053,6,19.5,6z" fill="#4bb5bd"/>
	<path d="M36.5,6h-13c-0.553,0-1,0.447-1,1s0.447,1,1,1h13c0.553,0,1-0.447,1-1S37.053,6,36.5,6z" fill="#4bb5bd"/>
	<path d="M14.5,46h5c0.553,0,1-0.447,1-1s-0.447-1-1-1h-5c-0.553,0-1,0.447-1,1S13.947,46,14.5,46z" fill="#4bb5bd"/>
	<path d="M23.5,46h13c0.553,0,1-0.447,1-1s-0.447-1-1-1h-13c-0.553,0-1,0.447-1,1S22.947,46,23.5,46z" fill="#4bb5bd"/>
</g>
<g>
</g>
<g>
</g>
<g>
</g>
<g>
</g>
<g>
</g>
<g>
</g>
<g>
</g>
<g>
</g>
<g>
</g>
<g>
</g>
<g>
</g>
<g>
</g>
<g>
</g>
<g>
</g>
<g>
</g>
</svg>
