<?xml version="1.0" encoding="iso-8859-1"?>
<!-- Generator: Adobe Illustrator 18.0.0, SVG Export Plug-In . SVG Version: 6.00 Build 0)  -->
<!DOCTYPE svg PUBLIC "-//W3C//DTD SVG 1.1//EN" "http://www.w3.org/Graphics/SVG/1.1/DTD/svg11.dtd">
<svg xmlns="http://www.w3.org/2000/svg" xmlns:xlink="http://www.w3.org/1999/xlink" version="1.1" id="Capa_1" x="0px" y="0px" viewBox="0 0 297 297" style="enable-background:new 0 0 297 297;" xml:space="preserve" width="512px" height="512px">
<g>
	<path d="M211.565,12.967h-99.531c-3.58,0-7.013,1.422-9.544,3.955l-9.975,9.983l-16.8-21.679C73.158,1.932,69.226,0,65.049,0   H34.283c-7.451,0-13.49,6.04-13.49,13.49c0,7.452,6.039,13.493,13.49,13.493h24.153l14.855,19.163l-21.95,21.966   c-2.527,2.53-3.946,5.954-3.946,9.535v154.674c0,35.661,28.995,64.679,64.639,64.679h99.531c35.643,0,64.642-29.018,64.642-64.679   V77.647C276.207,41.984,247.208,12.967,211.565,12.967z M249.227,232.321c0,20.787-16.895,37.695-37.661,37.695h-99.531   c-20.766,0-37.659-16.908-37.659-37.695V83.23l43.252-43.283h93.938c20.766,0,37.661,16.91,37.661,37.7V232.321z" fill="#42c21f"/>
	<path d="M199.785,62.826c-5.266-5.273-13.808-5.277-19.076-0.01c-5.273,5.268-5.277,13.804-0.008,19.075l27.517,27.543   c2.634,2.638,6.089,3.955,9.544,3.955c3.451,0,6.902-1.315,9.536-3.946c5.271-5.266,5.274-13.809,0.01-19.08L199.785,62.826z" fill="#42c21f"/>
	<path d="M171.086,126.832c-5.206-4.935-13.362-4.935-18.567,0c-0.403,0.379-9.905,9.43-19.515,21.189   c-14.398,17.63-21.393,31.918-21.393,43.682c0,27.686,22.516,50.214,50.191,50.214c27.674,0,50.186-22.528,50.186-50.214   c0-11.764-6.995-26.052-21.391-43.682C180.994,136.262,171.485,127.211,171.086,126.832z M161.802,214.936   c-12.795,0-23.206-10.423-23.206-23.233c0-6.924,10.818-22.308,23.206-35.821c12.384,13.515,23.206,28.897,23.206,35.821   C185.008,204.514,174.6,214.936,161.802,214.936z" fill="#42c21f"/>
</g>
<g>
</g>
<g>
</g>
<g>
</g>
<g>
</g>
<g>
</g>
<g>
</g>
<g>
</g>
<g>
</g>
<g>
</g>
<g>
</g>
<g>
</g>
<g>
</g>
<g>
</g>
<g>
</g>
<g>
</g>
</svg>
