<?xml version="1.0" encoding="iso-8859-1"?>
<!-- Generator: Adobe Illustrator 19.0.0, SVG Export Plug-In . SVG Version: 6.00 Build 0)  -->
<svg xmlns="http://www.w3.org/2000/svg" xmlns:xlink="http://www.w3.org/1999/xlink" version="1.1" id="Layer_1" x="0px" y="0px" viewBox="0 0 485.011 485.011" style="enable-background:new 0 0 485.011 485.011;" xml:space="preserve" width="512px" height="512px">
<g>
	<path d="M300.937,66.535V0H184.074v66.535c-28.904,19.389-46.534,52.031-46.534,87.196v331.28h209.932V153.73   C347.471,118.565,329.841,85.923,300.937,66.535z M270.937,30v29.988h-56.863V30H270.937z M203.021,89.988h78.969   c21.979,13.637,35.481,37.728,35.481,63.742v16.022H167.54V153.73C167.54,127.716,181.043,103.625,203.021,89.988z M167.54,229.753   v-30h149.932v30H167.54z M317.471,259.753v30H167.54v-30H317.471z M167.54,455.011V319.753h149.932v135.258H167.54z" fill="#4bb5bd"/>
</g>
<g>
</g>
<g>
</g>
<g>
</g>
<g>
</g>
<g>
</g>
<g>
</g>
<g>
</g>
<g>
</g>
<g>
</g>
<g>
</g>
<g>
</g>
<g>
</g>
<g>
</g>
<g>
</g>
<g>
</g>
</svg>
